<svg width="20" height="20" viewBox="0 0 20 20" fill="none" xmlns="http://www.w3.org/2000/svg">
<path d="M0 10C0 4.47715 4.47715 0 10 0C15.5228 0 20 4.47715 20 10C20 15.5228 15.5228 20 10 20C4.47715 20 0 15.5228 0 10Z" fill="#EF3340"/>
<g clip-path="url(#clip0_3823_8004)">
<path d="M6.75836 13.9498C6.56222 13.9612 6.36933 13.896 6.22036 13.7679C5.92655 13.4723 5.92655 12.995 6.22036 12.6994L12.6538 6.266C12.9594 5.98005 13.4389 5.99595 13.7248 6.30153C13.9834 6.57787 13.9985 7.00261 13.7601 7.29657L7.28878 13.7679C7.14173 13.8941 6.95193 13.9592 6.75836 13.9498Z" fill="white"/>
<path d="M13.1842 13.9498C12.9854 13.9489 12.7949 13.87 12.6537 13.73L6.22029 7.29656C5.9481 6.9787 5.9851 6.50033 6.30297 6.22811C6.58667 5.98516 7.00507 5.98516 7.28875 6.22811L13.7601 12.6615C14.0656 12.9476 14.0814 13.4271 13.7954 13.7326C13.784 13.7448 13.7722 13.7565 13.7601 13.7679C13.6016 13.9057 13.3931 13.9716 13.1842 13.9498Z" fill="white"/>
</g>
<defs>
<clipPath id="clip0_3823_8004">
<rect width="8" height="8" fill="white" transform="translate(6 6)"/>
</clipPath>
</defs>
</svg>
