<svg width="20" height="20" viewBox="0 0 20 20" fill="none" xmlns="http://www.w3.org/2000/svg">
<path d="M0 10C0 4.47715 4.47715 0 10 0C15.5228 0 20 4.47715 20 10C20 15.5228 15.5228 20 10 20C4.47715 20 0 15.5228 0 10Z" fill="#28A265"/>
<g clip-path="url(#clip0_3823_7999)">
<path d="M9.06334 12.9887C8.98698 13.0655 8.88279 13.1084 8.77456 13.1084C8.66634 13.1084 8.56215 13.0655 8.48578 12.9887L6.17951 10.682C5.94016 10.4427 5.94016 10.0546 6.17951 9.8157L6.46829 9.52684C6.7077 9.2875 7.09536 9.2875 7.3347 9.52684L8.77456 10.9668L12.6653 7.07599C12.9047 6.83665 13.2927 6.83665 13.5317 7.07599L13.8205 7.36484C14.0598 7.60419 14.0598 7.99222 13.8205 8.23118L9.06334 12.9887Z" fill="white"/>
</g>
<defs>
<clipPath id="clip0_3823_7999">
<rect width="8" height="8" fill="white" transform="translate(6 6)"/>
</clipPath>
</defs>
</svg>
