<svg width="14" height="14" viewBox="0 0 14 14" fill="none" xmlns="http://www.w3.org/2000/svg">
<path d="M12.25 3.9375H10.9375V8.75C10.9375 9.33016 10.707 9.88656 10.2968 10.2968C9.88656 10.707 9.33016 10.9375 8.75 10.9375H3.9375V12.25C3.9375 12.5981 4.07578 12.9319 4.32192 13.1781C4.56806 13.4242 4.9019 13.5625 5.25 13.5625H12.25C12.5981 13.5625 12.9319 13.4242 13.1781 13.1781C13.4242 12.9319 13.5625 12.5981 13.5625 12.25V5.25C13.5625 4.9019 13.4242 4.56806 13.1781 4.32192C12.9319 4.07578 12.5981 3.9375 12.25 3.9375Z" fill="#343434"/>
<path d="M8.75 0.4375H1.75C1.02513 0.4375 0.4375 1.02513 0.4375 1.75V8.75C0.4375 9.47487 1.02513 10.0625 1.75 10.0625H8.75C9.47487 10.0625 10.0625 9.47487 10.0625 8.75V1.75C10.0625 1.02513 9.47487 0.4375 8.75 0.4375Z" fill="#343434"/>
</svg>
