<svg width="14" height="16" viewBox="0 0 14 16" fill="none" xmlns="http://www.w3.org/2000/svg">
<path d="M2.57456 12.4313L2.51393 8.18036C2.51106 7.98397 2.55692 7.83374 2.63986 7.75268C2.80022 7.59597 3.09272 7.68794 3.41629 8.00415L8.18236 12.6619C8.50555 12.9778 8.59941 13.2631 8.43943 13.4195C8.35636 13.5007 8.20418 13.5439 8.00273 13.541L3.65202 13.4828C3.37199 13.4788 3.10443 13.3667 2.89916 13.1661C2.69399 12.9656 2.57843 12.705 2.57456 12.4313Z" fill="#272020"/>
<path d="M11.4235 3.56874L11.4841 7.81964C11.487 8.01603 11.4411 8.16626 11.3582 8.24732C11.1978 8.40403 10.9053 8.31206 10.5818 7.99585L5.81569 3.33809C5.49249 3.02224 5.39863 2.73688 5.55862 2.58053C5.64169 2.49935 5.79387 2.45614 5.99532 2.45901L10.346 2.51723C10.6261 2.52121 10.8936 2.63334 11.0989 2.83395C11.3041 3.03439 11.4196 3.29497 11.4235 3.56874Z" fill="#272020"/>
</svg>
