<svg width="36" height="36" viewBox="0 0 36 36" fill="none" xmlns="http://www.w3.org/2000/svg">
<rect width="36" height="36" rx="12" fill="#F8B310" fill-opacity="0.15"/>
<g filter="url(#filter0_d_4383_8592)">
<path d="M27.375 21.25H26.125V18.125C26.125 17.78 25.845 17.5 25.5 17.5H18.625V15H19.875C20.22 15 20.5 14.72 20.5 14.375V10.625C20.5 10.28 20.22 10 19.875 10H16.125C15.78 10 15.5 10.28 15.5 10.625V14.375C15.5 14.72 15.78 15 16.125 15H17.375V17.5H10.5C10.155 17.5 9.875 17.78 9.875 18.125V21.25H8.625C8.28 21.25 8 21.53 8 21.875V25.625C8 25.97 8.28 26.25 8.625 26.25H12.375C12.72 26.25 13 25.97 13 25.625V21.875C13 21.53 12.72 21.25 12.375 21.25H11.125V18.75H17.375V21.25H16.125C15.78 21.25 15.5 21.53 15.5 21.875V25.625C15.5 25.97 15.78 26.25 16.125 26.25H19.875C20.22 26.25 20.5 25.97 20.5 25.625V21.875C20.5 21.53 20.22 21.25 19.875 21.25H18.625V18.75H24.875V21.25H23.625C23.28 21.25 23 21.53 23 21.875V25.625C23 25.97 23.28 26.25 23.625 26.25H27.375C27.72 26.25 28 25.97 28 25.625V21.875C28 21.53 27.72 21.25 27.375 21.25Z" fill="#F8B310"/>
</g>
<defs>
<filter id="filter0_d_4383_8592" x="4" y="9" width="28" height="24.25" filterUnits="userSpaceOnUse" color-interpolation-filters="sRGB">
<feFlood flood-opacity="0" result="BackgroundImageFix"/>
<feColorMatrix in="SourceAlpha" type="matrix" values="0 0 0 0 0 0 0 0 0 0 0 0 0 0 0 0 0 0 127 0" result="hardAlpha"/>
<feOffset dy="3"/>
<feGaussianBlur stdDeviation="2"/>
<feComposite in2="hardAlpha" operator="out"/>
<feColorMatrix type="matrix" values="0 0 0 0 0.972549 0 0 0 0 0.701961 0 0 0 0 0.0627451 0 0 0 0.3 0"/>
<feBlend mode="normal" in2="BackgroundImageFix" result="effect1_dropShadow_4383_8592"/>
<feBlend mode="normal" in="SourceGraphic" in2="effect1_dropShadow_4383_8592" result="shape"/>
</filter>
</defs>
</svg>
