<svg width="14" height="14" viewBox="0 0 14 14" fill="none" xmlns="http://www.w3.org/2000/svg">
<g clip-path="url(#clip0_3794_7298)">
<path d="M8.75 3.79151C8.428 3.79151 8.16667 3.53017 8.16667 3.20817V2.33317H5.83333V3.20817C5.83333 3.53017 5.57199 3.79151 5.24999 3.79151C4.92799 3.79151 4.66666 3.53017 4.66666 3.20817V2.33317C4.66666 1.68975 5.18991 1.1665 5.83333 1.1665H8.16667C8.81008 1.1665 9.33334 1.68975 9.33334 2.33317V3.20817C9.33334 3.53017 9.072 3.79151 8.75 3.79151Z" fill="#343434"/>
<path d="M7.41416 8.97166C7.30916 9.01249 7.1575 9.04166 7 9.04166C6.8425 9.04166 6.69083 9.01249 6.55083 8.95999L0 6.77832V11.2292C0 12.1158 0.7175 12.8333 1.60417 12.8333H12.3958C13.2825 12.8333 14 12.1158 14 11.2292V6.77832L7.41416 8.97166Z" fill="#343434"/>
<path d="M14 4.52067V5.85651L7.14 8.14318C7.09333 8.16068 7.04666 8.16651 7 8.16651C6.95333 8.16651 6.90666 8.16068 6.86 8.14318L0 5.85651V4.52067C0 3.634 0.7175 2.9165 1.60417 2.9165H12.3958C13.2825 2.9165 14 3.634 14 4.52067Z" fill="#343434"/>
</g>
<defs>
<clipPath id="clip0_3794_7298">
<rect width="14" height="14" fill="white"/>
</clipPath>
</defs>
</svg>
