<svg width="10" height="14" viewBox="0 0 10 14" fill="none" xmlns="http://www.w3.org/2000/svg">
<path d="M9.14477 2.3974C8.29512 0.93112 6.78596 0.0353113 5.10774 0.0010769C5.0361 -0.000399658 4.96399 -0.000399658 4.89232 0.0010769C3.21413 0.0353113 1.70497 0.93112 0.855293 2.3974C-0.0131988 3.89617 -0.0369604 5.69648 0.791719 7.21326L4.26336 13.5676C4.26492 13.5704 4.26648 13.5732 4.26809 13.576C4.42084 13.8415 4.69447 14 5.00009 14C5.30568 14 5.57931 13.8415 5.73202 13.576C5.73364 13.5732 5.7352 13.5704 5.73675 13.5676L9.2084 7.21326C10.037 5.69648 10.0133 3.89617 9.14477 2.3974ZM5.00003 6.34373C3.91446 6.34373 3.03128 5.46056 3.03128 4.37498C3.03128 3.28941 3.91446 2.40623 5.00003 2.40623C6.08561 2.40623 6.96878 3.28941 6.96878 4.37498C6.96878 5.46056 6.08563 6.34373 5.00003 6.34373Z" fill="white"/>
</svg>
