<svg width="12" height="12" viewBox="0 0 12 12" fill="none" xmlns="http://www.w3.org/2000/svg">
<path d="M11.9687 4.60274C11.8902 4.35976 11.6746 4.18717 11.4197 4.16419L7.95614 3.8497L6.58656 0.644083C6.48558 0.409153 6.25559 0.25708 6.00006 0.25708C5.74453 0.25708 5.51454 0.409153 5.41356 0.644633L4.04399 3.8497L0.579908 4.16419C0.325385 4.18772 0.110414 4.35976 0.0314019 4.60274C-0.0476102 4.84573 0.0253592 5.11225 0.2179 5.28025L2.83592 7.57627L2.06392 10.9769C2.00744 11.2269 2.10448 11.4854 2.31195 11.6354C2.42346 11.7159 2.55393 11.7569 2.68549 11.7569C2.79893 11.7569 2.91145 11.7264 3.01244 11.6659L6.00006 9.88034L8.98659 11.6659C9.20513 11.7974 9.48062 11.7854 9.68762 11.6354C9.89518 11.4849 9.99214 11.2264 9.93565 10.9769L9.16366 7.57627L11.7817 5.28071C11.9742 5.11225 12.0477 4.84619 11.9687 4.60274Z" fill="url(#paint0_linear_3155_1576)"/>
<defs>
<linearGradient id="paint0_linear_3155_1576" x1="0" y1="6.00701" x2="12" y2="6.00701" gradientUnits="userSpaceOnUse">
<stop stop-color="#E8F24A"/>
<stop offset="1" stop-color="#B4F85E"/>
</linearGradient>
</defs>
</svg>
