<svg width="16" height="16" viewBox="0 0 16 16" fill="none" xmlns="http://www.w3.org/2000/svg">
<path fill-rule="evenodd" clip-rule="evenodd" d="M15.7863 14.7542L13.0457 12.0783C14.0859 10.8039 14.7129 9.17151 14.7129 7.39234C14.7129 3.31134 11.4177 0 7.35646 0C3.2917 0 0 3.31134 0 7.39234C0 11.4733 3.2917 14.7847 7.35646 14.7847C9.127 14.7847 10.7479 14.1582 12.0161 13.1129L14.7567 15.7852C15.0417 16.0716 15.5013 16.0716 15.7863 15.7852C16.0712 15.5024 16.0712 15.037 15.7863 14.7542ZM7.35582 13.313C4.1033 13.313 1.45996 10.6568 1.45996 7.39198C1.45996 4.12718 4.1033 1.46737 7.35582 1.46737C10.6048 1.46737 13.2517 4.12718 13.2517 7.39198C13.2517 10.6568 10.6048 13.313 7.35582 13.313Z" fill="#272020"/>
</svg>
