<svg width="14" height="14" viewBox="0 0 14 14" fill="none" xmlns="http://www.w3.org/2000/svg">
<path d="M13.1662 5.75177L1.87068 1.06478C1.39482 0.867302 0.857211 0.954173 0.467699 1.29138C0.0781873 1.62863 -0.0847267 2.14827 0.0425858 2.64749L1.04799 6.59024H5.97057C6.19709 6.59024 6.38076 6.77388 6.38076 7.00042C6.38076 7.22694 6.19712 7.41061 5.97057 7.41061H1.04799L0.0425858 11.3533C-0.0847267 11.8526 0.07816 12.3722 0.467699 12.7094C0.858004 13.0473 1.39566 13.1331 1.87071 12.936L13.1662 8.24908C13.6805 8.03569 14 7.55722 14 7.00042C14 6.44362 13.6805 5.96513 13.1662 5.75177Z" fill="#272020"/>
</svg>
