<svg width="14" height="16" viewBox="0 0 14 16" fill="none" xmlns="http://www.w3.org/2000/svg">
<path d="M6.11532 11.0538L6.2245 15.3128C6.22961 15.5096 6.18561 15.6606 6.10382 15.7428C5.94571 15.9017 5.65297 15.8129 5.32667 15.4998L0.520488 10.8872C0.194572 10.5745 0.0977021 10.2896 0.255448 10.1311C0.337356 10.0488 0.488616 10.0037 0.68954 10.0043L5.02881 10.0125C5.3081 10.0133 5.5762 10.1225 5.78321 10.3212C5.9901 10.5197 6.10833 10.7795 6.11532 11.0538Z" fill="#272020"/>
<path d="M7.87836 4.94083L7.76917 0.686446C7.76405 0.489902 7.80811 0.338993 7.88998 0.256897C8.04827 0.0981807 8.34131 0.186871 8.66794 0.499669L13.479 5.10705C13.8053 5.41949 13.9023 5.70405 13.7443 5.8624C13.6624 5.94462 13.5109 5.98962 13.3098 5.98908L8.96598 5.98095C8.6864 5.9802 8.41802 5.87105 8.2108 5.6726C8.00369 5.47433 7.88535 5.21482 7.87836 4.94083Z" fill="#272020"/>
</svg>
