<svg width="36" height="36" viewBox="0 0 36 36" fill="none" xmlns="http://www.w3.org/2000/svg">
<rect width="36" height="36" rx="12" fill="#A480FA" fill-opacity="0.12"/>
<g filter="url(#filter0_d_3077_573)">
<path d="M13.669 20.4169C13.394 20.142 13.2904 20.2801 13.2292 20.3414C11.6454 21.9252 10.2393 25.7467 10.9826 25.3735C13.6887 24.0148 14.1396 24.4193 15.7234 22.8356C15.7846 22.7743 15.9254 22.6734 15.6423 22.3903L13.669 20.4169Z" fill="#A480FA"/>
<path d="M22.2072 20.396C22.1354 20.1676 22.2858 20.0576 22.3491 19.9892C25.8447 16.2152 28.0664 11.1871 26.42 9.54063C24.7823 7.90304 19.9092 10.1896 16.1363 13.66C16.0616 13.7288 15.9145 13.859 15.6513 13.804L14.4758 13.5241C14.1494 13.4465 13.6882 13.577 13.451 13.8142L9.1377 18.1274C8.90047 18.3647 8.97755 18.6015 9.309 18.6535L12.4287 19.1438C12.7601 19.1959 13.2254 19.0444 13.4626 18.8071C13.4626 18.8071 13.6236 18.6457 13.7853 18.8074C14.6775 19.6995 16.3356 21.3576 17.1856 22.2077C17.3546 22.3766 17.1928 22.5373 17.1928 22.5373C16.9555 22.7746 16.804 23.2398 16.8562 23.5713L17.3464 26.6909C17.3985 27.0225 17.6352 27.0995 17.8724 26.8623L22.1858 22.5489C22.423 22.3117 22.5535 21.8506 22.4758 21.5242L22.2072 20.396ZM21.2415 14.8235C20.5109 14.093 20.5109 12.9086 21.2415 12.1781C21.972 11.4475 23.1564 11.4475 23.887 12.1781C24.6175 12.9085 24.6175 14.093 23.887 14.8235C23.1564 15.5541 21.9719 15.5541 21.2415 14.8235Z" fill="#A480FA"/>
</g>
<defs>
<filter id="filter0_d_3077_573" x="5" y="8" width="25.9738" height="26" filterUnits="userSpaceOnUse" color-interpolation-filters="sRGB">
<feFlood flood-opacity="0" result="BackgroundImageFix"/>
<feColorMatrix in="SourceAlpha" type="matrix" values="0 0 0 0 0 0 0 0 0 0 0 0 0 0 0 0 0 0 127 0" result="hardAlpha"/>
<feOffset dy="3"/>
<feGaussianBlur stdDeviation="2"/>
<feComposite in2="hardAlpha" operator="out"/>
<feColorMatrix type="matrix" values="0 0 0 0 0.643137 0 0 0 0 0.501961 0 0 0 0 0.980392 0 0 0 0.3 0"/>
<feBlend mode="normal" in2="BackgroundImageFix" result="effect1_dropShadow_3077_573"/>
<feBlend mode="normal" in="SourceGraphic" in2="effect1_dropShadow_3077_573" result="shape"/>
</filter>
</defs>
</svg>
