<svg width="36" height="36" viewBox="0 0 36 36" fill="none" xmlns="http://www.w3.org/2000/svg">
<rect width="36" height="36" rx="10" fill="#F8F9FD"/>
<g filter="url(#filter0_d_4383_8618)">
<path d="M25.7816 13.5C24.7543 13.5 23.8065 13.1597 23.0453 12.5856C22.1724 11.9275 21.5452 10.9621 21.3237 9.84938C21.2689 9.57445 21.2394 9.29074 21.2365 9H18.3021V17.0184L18.2985 21.4105C18.2985 22.5847 17.5339 23.5804 16.4739 23.9305C16.1663 24.0321 15.8341 24.0803 15.4881 24.0613C15.0466 24.037 14.6328 23.9038 14.2731 23.6886C13.5078 23.2309 12.9889 22.4005 12.9748 21.4506C12.9527 19.9659 14.1529 18.7555 15.6365 18.7555C15.9294 18.7555 16.2106 18.8033 16.4739 18.8902V16.6985V15.9107C16.1962 15.8695 15.9135 15.8481 15.6277 15.8481C14.0039 15.8481 12.4851 16.5231 11.3995 17.7391C10.5789 18.6581 10.0867 19.8306 10.0108 21.06C9.91131 22.6751 10.5023 24.2104 11.6484 25.3431C11.8168 25.5094 11.9936 25.6637 12.1785 25.8061C13.1612 26.5623 14.3624 26.9722 15.6277 26.9722C15.9135 26.9722 16.1962 26.9511 16.4739 26.91C17.6559 26.7349 18.7464 26.1939 19.6071 25.3431C20.6646 24.2979 21.2489 22.9103 21.2552 21.4334L21.2401 14.8746C21.7446 15.2638 22.2962 15.5858 22.8882 15.8358C23.8089 16.2243 24.7852 16.4211 25.79 16.4208V14.29V13.4993C25.7907 13.5 25.7823 13.5 25.7816 13.5Z" fill="#A6B7CE"/>
</g>
<defs>
<filter id="filter0_d_4383_8618" x="6" y="9" width="23.79" height="25.9727" filterUnits="userSpaceOnUse" color-interpolation-filters="sRGB">
<feFlood flood-opacity="0" result="BackgroundImageFix"/>
<feColorMatrix in="SourceAlpha" type="matrix" values="0 0 0 0 0 0 0 0 0 0 0 0 0 0 0 0 0 0 127 0" result="hardAlpha"/>
<feOffset dy="4"/>
<feGaussianBlur stdDeviation="2"/>
<feComposite in2="hardAlpha" operator="out"/>
<feColorMatrix type="matrix" values="0 0 0 0 0.65098 0 0 0 0 0.717647 0 0 0 0 0.807843 0 0 0 0.25 0"/>
<feBlend mode="normal" in2="BackgroundImageFix" result="effect1_dropShadow_4383_8618"/>
<feBlend mode="normal" in="SourceGraphic" in2="effect1_dropShadow_4383_8618" result="shape"/>
</filter>
</defs>
</svg>
