<svg width="12" height="8" viewBox="0 0 12 8" fill="none" xmlns="http://www.w3.org/2000/svg">
<path d="M6.46824 0.66642L11.8083 6.00657C11.9319 6.13008 12 6.29496 12 6.47076C12 6.64657 11.9319 6.81144 11.8083 6.93496L11.4151 7.32822C11.1589 7.58412 10.7425 7.58412 10.4867 7.32822L6.00249 2.84396L1.51326 7.3332C1.38965 7.45671 1.22487 7.5249 1.04916 7.5249C0.873261 7.5249 0.708482 7.45671 0.584775 7.3332L0.191706 6.93993C0.0680971 6.81632 0 6.65154 0 6.47574C0 6.29994 0.0680971 6.13506 0.191706 6.01155L5.53664 0.66642C5.66064 0.542616 5.8262 0.474617 6.00219 0.475007C6.17888 0.474617 6.34434 0.542616 6.46824 0.66642Z" fill="black"/>
</svg>
