<svg width="36" height="36" viewBox="0 0 36 36" fill="none" xmlns="http://www.w3.org/2000/svg">
<circle cx="18" cy="18" r="18" fill="white"/>
<path d="M21.3336 17.5318L15.9934 12.1917C15.8699 12.0681 15.705 12 15.5292 12C15.3534 12 15.1886 12.0681 15.065 12.1917L14.6718 12.5849C14.4159 12.8411 14.4159 13.2575 14.6718 13.5133L19.156 17.9975L14.6668 22.4867C14.5433 22.6104 14.4751 22.7751 14.4751 22.9508C14.4751 23.1267 14.5433 23.2915 14.6668 23.4152L15.0601 23.8083C15.1837 23.9319 15.3485 24 15.5243 24C15.7001 24 15.8649 23.9319 15.9885 23.8083L21.3336 18.4634C21.4574 18.3394 21.5254 18.1738 21.525 17.9978C21.5254 17.8211 21.4574 17.6557 21.3336 17.5318Z" fill="black"/>
</svg>
