<svg width="36" height="36" viewBox="0 0 36 36" fill="none" xmlns="http://www.w3.org/2000/svg">
<rect width="36" height="36" rx="10" fill="#F8F9FD"/>
<g filter="url(#filter0_d_4383_8615)">
<path d="M23.2616 12H12.7384C10.6737 12 9 13.6737 9 15.7384V20.9989C9 23.0635 10.6737 24.7373 12.7384 24.7373H23.2616C25.3263 24.7373 27 23.0635 27 20.9989V15.7384C27 13.6737 25.3263 12 23.2616 12ZM20.7334 18.6246L15.8113 20.9721C15.6802 21.0347 15.5287 20.939 15.5287 20.7937V15.9519C15.5287 15.8046 15.6842 15.7091 15.8156 15.7757L20.7377 18.27C20.884 18.3441 20.8815 18.554 20.7334 18.6246Z" fill="#A6B7CE"/>
</g>
<defs>
<filter id="filter0_d_4383_8615" x="5" y="11" width="26" height="20.7363" filterUnits="userSpaceOnUse" color-interpolation-filters="sRGB">
<feFlood flood-opacity="0" result="BackgroundImageFix"/>
<feColorMatrix in="SourceAlpha" type="matrix" values="0 0 0 0 0 0 0 0 0 0 0 0 0 0 0 0 0 0 127 0" result="hardAlpha"/>
<feOffset dy="3"/>
<feGaussianBlur stdDeviation="2"/>
<feComposite in2="hardAlpha" operator="out"/>
<feColorMatrix type="matrix" values="0 0 0 0 0.65098 0 0 0 0 0.717647 0 0 0 0 0.807843 0 0 0 0.3 0"/>
<feBlend mode="normal" in2="BackgroundImageFix" result="effect1_dropShadow_4383_8615"/>
<feBlend mode="normal" in="SourceGraphic" in2="effect1_dropShadow_4383_8615" result="shape"/>
</filter>
</defs>
</svg>
