<svg width="10" height="10" viewBox="0 0 10 10" fill="none" xmlns="http://www.w3.org/2000/svg">
<path d="M9.12109 4.12109H5.87891V0.878906C5.87891 0.393496 5.48541 0 5 0C4.51459 0 4.12109 0.393496 4.12109 0.878906V4.12109H0.878906C0.393496 4.12109 0 4.51459 0 5C0 5.48541 0.393496 5.87891 0.878906 5.87891H4.12109V9.12109C4.12109 9.6065 4.51459 10 5 10C5.48541 10 5.87891 9.6065 5.87891 9.12109V5.87891H9.12109C9.6065 5.87891 10 5.48541 10 5C10 4.51459 9.6065 4.12109 9.12109 4.12109Z" fill="#272020"/>
</svg>
