<svg width="18" height="20" viewBox="0 0 18 20" fill="none" xmlns="http://www.w3.org/2000/svg">
<path d="M12.8485 0C12.8951 0 12.9416 0 12.9908 0C13.105 1.41044 12.5666 2.46432 11.9123 3.22751C11.2703 3.98542 10.3912 4.7205 8.96937 4.60897C8.87452 3.21872 9.41375 2.24301 10.0672 1.48158C10.6731 0.771967 11.7841 0.140517 12.8485 0Z" fill="black"/>
<path d="M17.1529 14.681C17.1529 14.695 17.1529 14.7073 17.1529 14.7205C16.7533 15.9307 16.1834 16.9679 15.4878 17.9304C14.8528 18.8043 14.0747 19.9802 12.6854 19.9802C11.4848 19.9802 10.6874 19.2083 9.45697 19.1872C8.15543 19.1661 7.43967 19.8327 6.24967 20.0004C6.11354 20.0004 5.97742 20.0004 5.84392 20.0004C4.97008 19.874 4.26486 19.1819 3.75109 18.5584C2.23614 16.7158 1.06546 14.3358 0.847656 11.2901C0.847656 10.9915 0.847656 10.6938 0.847656 10.3952C0.939871 8.21542 1.99902 6.44314 3.40683 5.58423C4.14981 5.12755 5.1712 4.73849 6.30851 4.91238C6.79593 4.98791 7.29389 5.15478 7.73037 5.31989C8.14402 5.47885 8.66129 5.76076 9.15135 5.74583C9.48332 5.73617 9.81354 5.56316 10.1481 5.44108C11.1283 5.08715 12.089 4.68141 13.3555 4.87199C14.8774 5.10208 15.9577 5.77832 16.6251 6.82166C15.3376 7.64105 14.3197 8.87585 14.4936 10.9845C14.6482 12.8999 15.7618 14.0205 17.1529 14.681Z" fill="black"/>
</svg>
