<svg width="12" height="8" viewBox="0 0 12 8" fill="none" xmlns="http://www.w3.org/2000/svg">
<path d="M5.53176 7.33309L0.191706 1.99294C0.068097 1.86943 0 1.70455 0 1.52875C0 1.35294 0.068097 1.18807 0.191706 1.06456L0.584873 0.671291C0.841066 0.41539 1.25745 0.41539 1.51326 0.671291L5.99751 5.15555L10.4867 0.666315C10.6104 0.542804 10.7751 0.474609 10.9508 0.474609C11.1267 0.474609 11.2915 0.542804 11.4152 0.666315L11.8083 1.05958C11.9319 1.18319 12 1.34797 12 1.52377C12 1.69958 11.9319 1.86445 11.8083 1.98796L6.46336 7.33309C6.33936 7.4569 6.1738 7.52489 5.99781 7.5245C5.82112 7.52489 5.65566 7.4569 5.53176 7.33309Z" fill="black"/>
</svg>
