<svg width="36" height="36" viewBox="0 0 36 36" fill="none" xmlns="http://www.w3.org/2000/svg">
<rect width="36" height="36" rx="12" fill="#F4A3EF" fill-opacity="0.15"/>
<path d="M18 9C13.05 9 9 13.05 9 18C9 22.95 13.05 27 18 27C22.95 27 27 22.95 27 18C27 13.05 22.95 9 18 9ZM18 17.175C19.575 17.175 20.775 18.45 20.775 19.95C20.775 21.225 19.95 22.275 18.825 22.575V22.95C18.825 23.4 18.45 23.775 18 23.775C17.55 23.775 17.175 23.4 17.175 22.95V22.575C16.05 22.2 15.225 21.15 15.225 19.95C15.225 19.5 15.6 19.125 16.05 19.125C16.5 19.125 16.875 19.5 16.875 19.95C16.875 20.55 17.4 21.075 18 21.075C18.6 21.075 19.125 20.625 19.125 19.95C19.125 19.275 18.6 18.825 18 18.825C16.425 18.825 15.225 17.55 15.225 16.05C15.225 14.775 16.05 13.725 17.175 13.425V12.975C17.175 12.525 17.55 12.15 18 12.15C18.45 12.15 18.825 12.525 18.825 12.975V13.35C19.95 13.725 20.775 14.775 20.775 15.975C20.775 16.425 20.4 16.8 19.95 16.8C19.5 16.8 19.125 16.425 19.125 15.975C19.125 15.375 18.6 14.85 18 14.85C17.4 14.85 16.875 15.3 16.875 15.975C16.875 16.65 17.4 17.175 18 17.175Z" fill="#F4A3EF"/>
</svg>
