<svg width="10" height="14" viewBox="0 0 10 14" fill="none" xmlns="http://www.w3.org/2000/svg">
<path d="M1.11086 6.45372L7.34104 0.223657C7.48514 0.0794465 7.6775 0 7.8826 0C8.0877 0 8.28006 0.0794465 8.42416 0.223657L8.88297 0.682352C9.18152 0.981244 9.18152 1.46703 8.88297 1.76547L3.65133 6.9971L8.88877 12.2345C9.03287 12.3787 9.11243 12.571 9.11243 12.776C9.11243 12.9812 9.03287 13.1734 8.88877 13.3178L8.42996 13.7763C8.28575 13.9206 8.09351 14 7.8884 14C7.6833 14 7.49094 13.9206 7.34685 13.7763L1.11086 7.54059C0.966426 7.39592 0.887094 7.20277 0.887549 6.99744C0.887094 6.79131 0.966426 6.59827 1.11086 6.45372Z" fill="#272020"/>
</svg>
