<svg width="8" height="12" viewBox="0 0 8 12" fill="none" xmlns="http://www.w3.org/2000/svg">
<path d="M0.66639 5.53176L6.00654 0.191706C6.13005 0.068097 6.29493 0 6.47073 0C6.64654 0 6.81141 0.068097 6.93493 0.191706L7.32819 0.584873C7.58409 0.841066 7.58409 1.25745 7.32819 1.51326L2.84393 5.99751L7.33317 10.4867C7.45668 10.6104 7.52487 10.7751 7.52487 10.9508C7.52487 11.1267 7.45668 11.2915 7.33317 11.4152L6.9399 11.8083C6.81629 11.9319 6.65151 12 6.47571 12C6.29991 12 6.13503 11.9319 6.01152 11.8083L0.66639 6.46336C0.542586 6.33936 0.474587 6.1738 0.474977 5.99781C0.474587 5.82112 0.542586 5.65566 0.66639 5.53176Z" fill="white"/>
</svg>
