<svg width="8" height="12" viewBox="0 0 8 12" fill="none" xmlns="http://www.w3.org/2000/svg">
<path d="M7.33358 6.46824L1.99343 11.8083C1.86992 11.9319 1.70504 12 1.52924 12C1.35343 12 1.18856 11.9319 1.06504 11.8083L0.671779 11.4151C0.415879 11.1589 0.415879 10.7425 0.671779 10.4867L5.15604 6.00249L0.666803 1.51326C0.543292 1.38965 0.475098 1.22487 0.475098 1.04916C0.475098 0.873261 0.543292 0.708482 0.666803 0.584775L1.06007 0.191706C1.18368 0.0680971 1.34846 0 1.52426 0C1.70006 0 1.86494 0.0680971 1.98845 0.191706L7.33358 5.53664C7.45738 5.66064 7.52538 5.8262 7.52499 6.00219C7.52538 6.17888 7.45738 6.34434 7.33358 6.46824Z" fill="white"/>
</svg>
