<svg width="36" height="36" viewBox="0 0 36 36" fill="none" xmlns="http://www.w3.org/2000/svg">
<circle cx="18" cy="18" r="18" fill="white"/>
<path d="M14.6664 17.5318L20.0066 12.1917C20.1301 12.0681 20.295 12 20.4708 12C20.6466 12 20.8114 12.0681 20.935 12.1917L21.3282 12.5849C21.5841 12.8411 21.5841 13.2575 21.3282 13.5133L16.844 17.9975L21.3332 22.4867C21.4567 22.6104 21.5249 22.7751 21.5249 22.9508C21.5249 23.1267 21.4567 23.2915 21.3332 23.4152L20.9399 23.8083C20.8163 23.9319 20.6515 24 20.4757 24C20.2999 24 20.1351 23.9319 20.0115 23.8083L14.6664 18.4634C14.5426 18.3394 14.4746 18.1738 14.475 17.9978C14.4746 17.8211 14.5426 17.6557 14.6664 17.5318Z" fill="black"/>
</svg>
